<mxfile host="app.diagrams.net" agent="Mozilla/5.0 (X11; Linux x86_64; rv:144.0) Gecko/20100101 Firefox/144.0" version="28.1.1">
  <diagram name="Page-1" id="nPSMN8shHIH9Cje0tpHZ">
    <mxGraphModel dx="712" dy="540" grid="1" gridSize="10" guides="1" tooltips="1" connect="1" arrows="1" fold="1" page="1" pageScale="1" pageWidth="291" pageHeight="413" math="0" shadow="0">
      <root>
        <mxCell id="0" />
        <mxCell id="1" parent="0" />
        <mxCell id="ONmzsRhYv475mUTvHMMu-13" style="edgeStyle=orthogonalEdgeStyle;rounded=0;orthogonalLoop=1;jettySize=auto;html=1;entryX=0;entryY=0.5;entryDx=0;entryDy=0;labelBackgroundColor=none;fontColor=light-dark(#000000,#202122);fontFamily=Lato;fontSource=https%3A%2F%2Ffonts.googleapis.com%2Fcss%3Ffamily%3DLato;strokeWidth=2;fontSize=14;spacing=5;curved=0;strokeColor=light-dark(#000000,#A2A9B1);" parent="1" source="01FXjIsKuXOsLsB-IkXL-1" target="ONmzsRhYv475mUTvHMMu-5" edge="1">
          <mxGeometry relative="1" as="geometry" />
        </mxCell>
        <mxCell id="01FXjIsKuXOsLsB-IkXL-1" value="&lt;div&gt;mwapi_responses&lt;/div&gt;" style="rounded=1;whiteSpace=wrap;html=1;fontFamily=Lato;fontSize=14;labelBackgroundColor=none;fontSource=https%3A%2F%2Ffonts.googleapis.com%2Fcss%3Ffamily%3DLato;strokeWidth=2;spacing=5;fontColor=light-dark(#000000,#202122);fillColor=light-dark(#FFFFFF,#F8F9FA);strokeColor=light-dark(#000000,#A2A9B1);" parent="1" vertex="1">
          <mxGeometry x="80" y="87" width="160" height="30" as="geometry" />
        </mxCell>
        <mxCell id="ONmzsRhYv475mUTvHMMu-20" style="edgeStyle=orthogonalEdgeStyle;rounded=0;orthogonalLoop=1;jettySize=auto;html=1;entryX=0;entryY=0.5;entryDx=0;entryDy=0;exitX=-0.002;exitY=0.605;exitDx=0;exitDy=0;exitPerimeter=0;labelBackgroundColor=none;fontColor=light-dark(#000000,#202122);fontFamily=Lato;fontSource=https%3A%2F%2Ffonts.googleapis.com%2Fcss%3Ffamily%3DLato;strokeWidth=2;fontSize=14;spacing=5;curved=0;strokeColor=light-dark(#000000,#A2A9B1);" parent="1" source="01FXjIsKuXOsLsB-IkXL-2" target="01FXjIsKuXOsLsB-IkXL-1" edge="1">
          <mxGeometry relative="1" as="geometry" />
        </mxCell>
        <mxCell id="ONmzsRhYv475mUTvHMMu-21" style="edgeStyle=orthogonalEdgeStyle;rounded=0;orthogonalLoop=1;jettySize=auto;html=1;entryX=0;entryY=0.5;entryDx=0;entryDy=0;exitX=0;exitY=0.5;exitDx=0;exitDy=0;labelBackgroundColor=none;fontColor=light-dark(#000000,#202122);fontFamily=Lato;fontSource=https%3A%2F%2Ffonts.googleapis.com%2Fcss%3Ffamily%3DLato;strokeWidth=2;fontSize=14;spacing=5;curved=0;strokeColor=light-dark(#000000,#A2A9B1);" parent="1" source="01FXjIsKuXOsLsB-IkXL-3" target="01FXjIsKuXOsLsB-IkXL-1" edge="1">
          <mxGeometry relative="1" as="geometry" />
        </mxCell>
        <mxCell id="01FXjIsKuXOsLsB-IkXL-10" style="edgeStyle=orthogonalEdgeStyle;rounded=0;orthogonalLoop=1;jettySize=auto;html=1;labelBackgroundColor=none;fontColor=light-dark(#000000,#202122);exitX=0;exitY=0.5;exitDx=0;exitDy=0;fontFamily=Lato;fontSource=https%3A%2F%2Ffonts.googleapis.com%2Fcss%3Ffamily%3DLato;strokeWidth=2;fontSize=14;spacing=5;curved=0;strokeColor=light-dark(#000000,#A2A9B1);" parent="1" source="01FXjIsKuXOsLsB-IkXL-6" target="01FXjIsKuXOsLsB-IkXL-1" edge="1">
          <mxGeometry relative="1" as="geometry" />
        </mxCell>
        <mxCell id="01FXjIsKuXOsLsB-IkXL-2" value="&lt;div&gt;mwapi&lt;/div&gt;" style="rounded=1;whiteSpace=wrap;html=1;fontFamily=Lato;fontSize=14;labelBackgroundColor=none;fontSource=https%3A%2F%2Ffonts.googleapis.com%2Fcss%3Ffamily%3DLato;strokeWidth=2;spacing=5;fontColor=light-dark(#000000,#202122);fillColor=light-dark(#FFFFFF,#F8F9FA);strokeColor=light-dark(#000000,#A2A9B1);" parent="1" vertex="1">
          <mxGeometry x="125" y="137" width="70" height="30" as="geometry" />
        </mxCell>
        <mxCell id="01FXjIsKuXOsLsB-IkXL-3" value="mwtimestamp" style="rounded=1;whiteSpace=wrap;html=1;fontFamily=Lato;fontSize=14;labelBackgroundColor=none;fontSource=https%3A%2F%2Ffonts.googleapis.com%2Fcss%3Ffamily%3DLato;strokeWidth=2;spacing=5;fontColor=light-dark(#000000,#202122);fillColor=light-dark(#FFFFFF,#F8F9FA);strokeColor=light-dark(#000000,#A2A9B1);" parent="1" vertex="1">
          <mxGeometry x="95" y="187" width="130" height="30" as="geometry" />
        </mxCell>
        <mxCell id="01FXjIsKuXOsLsB-IkXL-4" value="mwtitle" style="rounded=1;whiteSpace=wrap;html=1;fontFamily=Lato;fontSize=14;labelBackgroundColor=none;fontSource=https%3A%2F%2Ffonts.googleapis.com%2Fcss%3Ffamily%3DLato;strokeWidth=2;spacing=5;fontColor=light-dark(#000000,#202122);fillColor=light-dark(#FFFFFF,#F8F9FA);strokeColor=light-dark(#000000,#A2A9B1);" parent="1" vertex="1">
          <mxGeometry x="120" y="237" width="80" height="30" as="geometry" />
        </mxCell>
        <mxCell id="01FXjIsKuXOsLsB-IkXL-6" value="mwapi_responses_derive" style="rounded=1;whiteSpace=wrap;html=1;fontFamily=Lato;fontSize=14;labelBackgroundColor=none;fontSource=https%3A%2F%2Ffonts.googleapis.com%2Fcss%3Ffamily%3DLato;strokeWidth=2;spacing=5;fontColor=light-dark(#000000,#202122);fillColor=light-dark(#FFFFFF,#F8F9FA);strokeColor=light-dark(#000000,#EAECF0);" parent="1" vertex="1">
          <mxGeometry x="239" y="37" width="210" height="30" as="geometry" />
        </mxCell>
        <mxCell id="01FXjIsKuXOsLsB-IkXL-16" value="parsoid" style="rounded=1;whiteSpace=wrap;html=1;fontFamily=Lato;fontSize=14;labelBackgroundColor=none;fontSource=https%3A%2F%2Ffonts.googleapis.com%2Fcss%3Ffamily%3DLato;strokeWidth=2;spacing=5;fontColor=light-dark(#000000,#202122);fillColor=light-dark(#FFFFFF,#F8F9FA);strokeColor=light-dark(#000000,#A2A9B1);" parent="1" vertex="1">
          <mxGeometry x="120" y="287" width="80" height="30" as="geometry" />
        </mxCell>
        <mxCell id="ONmzsRhYv475mUTvHMMu-1" value="wikipedia_prosesize" style="rounded=1;whiteSpace=wrap;html=1;fontFamily=Lato;fontSize=14;labelBackgroundColor=none;fontSource=https%3A%2F%2Ffonts.googleapis.com%2Fcss%3Ffamily%3DLato;strokeWidth=2;spacing=5;fontColor=light-dark(#000000,#202122);fillColor=light-dark(#FFFFFF,#F8F9FA);strokeColor=light-dark(#000000,#EAECF0);" parent="1" vertex="1">
          <mxGeometry x="262" y="347" width="170" height="30" as="geometry" />
        </mxCell>
        <mxCell id="ONmzsRhYv475mUTvHMMu-5" value="mwbot" style="rounded=1;whiteSpace=wrap;html=1;fontFamily=Lato;fontSize=14;labelBackgroundColor=none;fontSource=https%3A%2F%2Ffonts.googleapis.com%2Fcss%3Ffamily%3DLato;strokeWidth=2;spacing=5;fontColor=light-dark(#000000,#2A4B8D);fillColor=light-dark(#FFFFFF,#EAF3FF);strokeColor=light-dark(#000000,#2A4B8D);fontStyle=1" parent="1" vertex="1">
          <mxGeometry x="360" y="212" width="100" height="40" as="geometry" />
        </mxCell>
        <mxCell id="ONmzsRhYv475mUTvHMMu-7" value="mwbot_derive" style="rounded=1;whiteSpace=wrap;html=1;fontFamily=Lato;fontSize=14;labelBackgroundColor=none;fontSource=https%3A%2F%2Ffonts.googleapis.com%2Fcss%3Ffamily%3DLato;strokeWidth=2;spacing=5;fontColor=light-dark(#000000,#202122);fillColor=light-dark(#FFFFFF,#F8F9FA);strokeColor=light-dark(#000000,#EAECF0);" parent="1" vertex="1">
          <mxGeometry x="345" y="297" width="130" height="30" as="geometry" />
        </mxCell>
        <mxCell id="ONmzsRhYv475mUTvHMMu-4" style="edgeStyle=orthogonalEdgeStyle;rounded=0;orthogonalLoop=1;jettySize=auto;html=1;entryX=0;entryY=0.5;entryDx=0;entryDy=0;exitX=0.5;exitY=1;exitDx=0;exitDy=0;labelBackgroundColor=none;fontColor=light-dark(#000000,#202122);fontFamily=Lato;fontSource=https%3A%2F%2Ffonts.googleapis.com%2Fcss%3Ffamily%3DLato;strokeWidth=2;fontSize=14;spacing=5;curved=0;strokeColor=light-dark(#000000,#A2A9B1);" parent="1" source="01FXjIsKuXOsLsB-IkXL-16" target="ONmzsRhYv475mUTvHMMu-1" edge="1">
          <mxGeometry relative="1" as="geometry" />
        </mxCell>
        <mxCell id="ONmzsRhYv475mUTvHMMu-12" style="edgeStyle=orthogonalEdgeStyle;rounded=0;orthogonalLoop=1;jettySize=auto;html=1;entryX=0;entryY=0.5;entryDx=0;entryDy=0;labelBackgroundColor=none;fontColor=light-dark(#000000,#202122);fontFamily=Lato;fontSource=https%3A%2F%2Ffonts.googleapis.com%2Fcss%3Ffamily%3DLato;strokeWidth=2;fontSize=14;spacing=5;curved=0;strokeColor=light-dark(#000000,#A2A9B1);" parent="1" source="01FXjIsKuXOsLsB-IkXL-2" target="ONmzsRhYv475mUTvHMMu-5" edge="1">
          <mxGeometry relative="1" as="geometry" />
        </mxCell>
        <mxCell id="ONmzsRhYv475mUTvHMMu-11" style="edgeStyle=orthogonalEdgeStyle;rounded=0;orthogonalLoop=1;jettySize=auto;html=1;entryX=0;entryY=0.5;entryDx=0;entryDy=0;labelBackgroundColor=none;fontColor=light-dark(#000000,#202122);fontFamily=Lato;fontSource=https%3A%2F%2Ffonts.googleapis.com%2Fcss%3Ffamily%3DLato;strokeWidth=2;fontSize=14;spacing=5;curved=0;strokeColor=light-dark(#000000,#A2A9B1);" parent="1" source="01FXjIsKuXOsLsB-IkXL-3" target="ONmzsRhYv475mUTvHMMu-5" edge="1">
          <mxGeometry relative="1" as="geometry" />
        </mxCell>
        <mxCell id="ONmzsRhYv475mUTvHMMu-10" style="edgeStyle=orthogonalEdgeStyle;rounded=0;orthogonalLoop=1;jettySize=auto;html=1;entryX=0;entryY=0.5;entryDx=0;entryDy=0;labelBackgroundColor=none;fontColor=light-dark(#000000,#202122);fontFamily=Lato;fontSource=https%3A%2F%2Ffonts.googleapis.com%2Fcss%3Ffamily%3DLato;strokeWidth=2;fontSize=14;spacing=5;curved=0;strokeColor=light-dark(#000000,#A2A9B1);" parent="1" source="01FXjIsKuXOsLsB-IkXL-4" target="ONmzsRhYv475mUTvHMMu-5" edge="1">
          <mxGeometry relative="1" as="geometry" />
        </mxCell>
        <mxCell id="ONmzsRhYv475mUTvHMMu-9" style="edgeStyle=orthogonalEdgeStyle;rounded=0;orthogonalLoop=1;jettySize=auto;html=1;entryX=0;entryY=0.5;entryDx=0;entryDy=0;labelBackgroundColor=none;fontColor=light-dark(#000000,#202122);fontFamily=Lato;fontSource=https%3A%2F%2Ffonts.googleapis.com%2Fcss%3Ffamily%3DLato;strokeWidth=2;fontSize=14;spacing=5;curved=0;strokeColor=light-dark(#000000,#A2A9B1);" parent="1" source="01FXjIsKuXOsLsB-IkXL-16" target="ONmzsRhYv475mUTvHMMu-5" edge="1">
          <mxGeometry relative="1" as="geometry" />
        </mxCell>
        <mxCell id="ONmzsRhYv475mUTvHMMu-8" style="edgeStyle=orthogonalEdgeStyle;rounded=0;orthogonalLoop=1;jettySize=auto;html=1;labelBackgroundColor=none;fontColor=light-dark(#000000,#202122);fontFamily=Lato;fontSource=https%3A%2F%2Ffonts.googleapis.com%2Fcss%3Ffamily%3DLato;strokeWidth=2;fontSize=14;spacing=5;curved=0;strokeColor=light-dark(#000000,#A2A9B1);" parent="1" source="ONmzsRhYv475mUTvHMMu-7" target="ONmzsRhYv475mUTvHMMu-5" edge="1">
          <mxGeometry relative="1" as="geometry" />
        </mxCell>
      </root>
    </mxGraphModel>
  </diagram>
</mxfile>
